<svg width="16" height="16" fill="none" xmlns="http://www.w3.org/2000/svg"><path d="M14.167.008h-11.9c-.964 0-1.7.737-1.7 1.7v11.9c0 .964.736 1.7 1.7 1.7h11.9c.963 0 1.7-.736 1.7-1.7v-11.9c0-.963-.737-1.7-1.7-1.7zm-5.95 12.354a4.692 4.692 0 004.703-4.704c0-.283-.057-.566-.113-.85h1.36v6.12c0 .34-.284.567-.567.567H2.833a.568.568 0 01-.566-.567v-6.12H3.57c-.057.284-.113.567-.113.85.056 2.607 2.153 4.704 4.76 4.704zM5.27 7.658a2.927 2.927 0 012.947-2.946 2.926 2.926 0 012.946 2.946 2.927 2.927 0 01-2.946 2.947c-1.644 0-2.947-1.36-2.947-2.947zm8.33-3.4h-1.36a.568.568 0 01-.567-.566V2.275c0-.34.284-.567.567-.567h1.36c.34 0 .567.284.567.567v1.36c0 .34-.284.623-.567.623z" fill="#fff"/></svg>