<svg width="80" height="80" fill="none" xmlns="http://www.w3.org/2000/svg"><path fill-rule="evenodd" clip-rule="evenodd" d="M40 26.667c-7.333 0-13.333 6-13.333 13.333s6 13.333 13.333 13.333 13.333-6 13.333-13.333-6-13.333-13.333-13.333zm0 20c-3.667 0-6.667-3-6.667-6.667s3-6.667 6.667-6.667 6.667 3 6.667 6.667-3 6.667-6.667 6.667zM70 50c5.667 0 10-4.333 10-10s-4.333-10-10-10h-1.667C68 29 67.667 28 67 27l1.333-1.333c4-4 4-10.334 0-14-4-4-10.333-4-14 0L53 13c-1-.333-2-1-3-1.333V10c0-5.667-4.333-10-10-10S30 4.333 30 10v1.667C29 12 28 12.333 27 13l-1.333-1.333c-4-4-10.334-4-14 0-4 4-4 10.333 0 14L13 27c-.333 1-1 2-1.333 3H10C4.333 30 0 34.333 0 40s4.333 10 10 10h1.667c.333 1 .666 2 1.333 3l-1.333 1.333c-4 4-4 10.334 0 14 4 4 10.333 4 14 0L27 67c1 .333 2 1 3 1.333V70c0 5.667 4.333 10 10 10s10-4.333 10-10v-1.667c1-.333 2-.666 3-1.333l1.333 1.333c4 4 10.334 4 14 0 4-4 4-10.333 0-14L67 53c.333-1 1-2 1.333-3H70zm-6.667 8.667c1.334 1.333 1.334 3.666 0 5C62 65 60 65 58.667 63.667L54 59c-3 2.333-6.667 4-10.667 4.333V70c0 2-1.333 3.333-3.333 3.333S36.667 72 36.667 70v-7c-4-.667-7.667-2-10.667-4.333l-4.667 4.666c-1.333 1.334-3.333 1.334-4.666 0-1.334-1.333-1.334-3.333 0-4.666L21.333 54c-2.333-3-4-6.667-4.333-10.667h-7C8 43.333 6.667 42 6.667 40S8 36.667 10 36.667h7c.667-4 2-7.667 4.333-10.667l-4.666-4.667c-1.334-1.333-1.334-3.333 0-4.666 1.333-1.334 3.333-1.334 4.666 0L26 21.333c3-2.333 6.667-4 10.667-4.333v-7C36.667 8 38 6.667 40 6.667S43.333 8 43.333 10v7c4 .667 7.667 2 10.667 4.333l4.667-4.666c1.333-1.334 3.333-1.334 4.666 0 1.334 1.333 1.334 3.333 0 4.666L58.667 26c2.333 3 4 6.667 4.333 10.667h7c2 0 3.333 1.333 3.333 3.333S72 43.333 70 43.333h-7c-.667 4-2 7.667-4.333 10.667l4.666 4.667z" fill="#000"/></svg>